<?xml version="1.0" encoding="utf-8"?>
<!-- Generator: Adobe Illustrator 21.0.0, SVG Export Plug-In . SVG Version: 6.00 Build 0)  -->
<svg version="1.1" id="Layer_1" xmlns="http://www.w3.org/2000/svg" xmlns:xlink="http://www.w3.org/1999/xlink" x="0px" y="0px"
	 viewBox="0 0 241.6 70.6" style="enable-background:new 0 0 241.6 70.6;" xml:space="preserve">
<style type="text/css">
	.st0{fill:#FFFFFF;}
</style>
<g>
	<g>
		<path class="st0" d="M67.1,0h9.1L49.5,49.3c-3.8,5.6-8.7,10.4-14.7,14.3c-7.2,4.7-14.1,7-20.6,7s-10.9-2.3-13.1-7
			s-1.4-10.3,2.1-16.8L28.6,0h9.1L12.4,46.8c-2.2,4-2.6,7.5-1.3,10.3c1.3,2.9,4,4.3,8.1,4.3c4.1,0,8.3-1.4,12.7-4.3
			c4.4-2.9,7.7-6.3,9.9-10.4L67.1,0z"/>
	</g>
	<g>
		<path class="st0" d="M162.8,0L125,70H116l37.8-70H162.8z"/>
	</g>
	<g>
		<path class="st0" d="M84.5,18.4L64.7,55h-9.1l19.8-36.6H84.5z"/>
	</g>
	<g>
		<path class="st0" d="M138.4,9.1H62.4L67.3,0h76.1L138.4,9.1z"/>
	</g>
	<g>
		<path class="st0" d="M236.7,9.1h-87.5l4.9-9.1h87.5L236.7,9.1z"/>
	</g>
	<g>
		<path class="st0" d="M110.3,24H39.4l4.9-9.1h70.8L110.3,24z"/>
	</g>
	<g>
		<path class="st0" d="M203.4,70.6H14.3l4.9-9.1h189.2L203.4,70.6z"/>
	</g>
	<g>
		<g>
			<path class="st0" d="M123.8,21.1l1.3-2.5h7.2l-19.2,35.5H106l2.4-4.4C103,53.2,98.1,55,93.5,55c-5.4,0-9-1.9-10.8-5.7
				c-1.8-3.8-1.2-8.4,1.8-13.9c2.9-5.4,7.3-10,13.2-13.9c5.9-3.8,11.5-5.7,17-5.7C119.3,15.8,122.3,17.6,123.8,21.1z M114.7,38
				l2.8-5.2c0.8-2.2,0.8-4.2,0-6.1c-1.1-2.4-3.4-3.6-6.7-3.6c-3.4,0-6.9,1.2-10.6,3.6c-3.7,2.4-6.4,5.3-8.3,8.7
				c-1.8,3.4-2.2,6.3-1.1,8.7c1.1,2.4,3.4,3.6,6.7,3.6c3.4,0,6.9-1.2,10.6-3.6C110.9,42.3,113.1,40.2,114.7,38z"/>
			<path class="st0" d="M93,55.9c-5.7,0-9.4-2-11.3-6c-1.8-4-1.2-8.9,1.8-14.5c3.1-5.7,7.7-10.5,13.9-14.5c6.1-4,12.1-6,17.8-6
				c4.1,0,7,1.4,8.8,4.1l2.2-4.1h9.1l-22.2,41.1h-9.1l2.2-4.1C101.6,54.6,97.1,55.9,93,55.9z M114.2,16.8c-5.1,0-10.6,1.8-16.1,5.5
				c-5.6,3.6-9.8,8.1-12.6,13.2c-2.8,5.1-3.3,9.6-1.7,13.2c1.7,3.6,5.1,5.5,10.2,5.5c4.3,0,8.9-1.6,14-5l2.5-1.7l-3.2,5.8h5.3
				l18.1-33.6h-5.3l-2.1,3.9l-0.7-1.7C121.3,18.4,118.5,16.8,114.2,16.8z M97,48.6c-3.6,0-6.1-1.3-7.3-3.9c-1.2-2.6-0.8-5.7,1.2-9.3
				c2-3.6,5-6.8,8.9-9.3c4-2.6,7.8-3.9,11.4-3.9c3.6,0,6.1,1.3,7.3,3.9c0.9,2,0.9,4.2,0,6.6l-3,5.5l-0.1,0.1
				c-1.7,2.4-4.1,4.6-7.1,6.6C104.5,47.3,100.6,48.6,97,48.6z M110.2,24.1c-3.2,0-6.4,1.1-9.8,3.3c-3.4,2.2-5.9,4.8-7.6,8
				c-1.7,3.1-2,5.8-1,8s3.1,3.3,6.2,3.3c3.1,0,6.3-1.1,9.8-3.3c2.5-1.6,4.5-3.5,6-5.5l2.8-5.1c0.6-1.9,0.6-3.7-0.1-5.4
				C115.4,25.2,113.4,24.1,110.2,24.1z"/>
		</g>
	</g>
	<g>
		<g>
			<path class="st0" d="M173,24.2h-28.3l4.2-7.8h41.8l-34.5,31.1h17.4l-4.3,7.9h-30.8L173,24.2z"/>
			<path class="st0" d="M169.6,55.9h-32.5l34.5-31.1h-27.9l4.9-9h43.4l-34.5,31.1h16.9L169.6,55.9z M139.8,54.8H169l3.6-6.7h-17.8
				L189.4,17h-40.2l-3.6,6.7h28.7L139.8,54.8z"/>
		</g>
	</g>
	<g>
		<g>
			<path class="st0" d="M202.7,18.2l1.6,17.9l21-17.9h4.1l-19.1,35.4h-4.5L219.6,28l-20.2,15.2L197.8,28L184,53.6h-4.5l19.1-35.4
				H202.7z"/>
			<polygon class="st0" points="211.3,55.9 202.2,55.9 213.5,34.9 197.8,46.2 197.3,33.2 185,55.9 175.9,55.9 197.5,15.8 
				205.3,15.8 204.4,33.3 225.2,15.8 233,15.8 			"/>
		</g>
	</g>
</g>
</svg>
